# xmcd CD database file
#
# Track frame offsets:
#	171
#	20359
#	39134
#	55474
#	72001
#	94032
#	113067
#	135893
#	156960
#
# Disc length: 2394 seconds
#
# Revision: 0
# Processed by: cddbd v1.5.1PL0 Copyright (c) Steve Scherf et al.
# Submitted via: CDex 1.51
#
DISCID=66095809
DTITLE=Sociedad 76 - Sociedad
DYEAR=1979
DGENRE=Salsa
TTITLE0=Pepe Trago
TTITLE1=Fantasia
TTITLE2=No me lo digas
TTITLE3=Arrabal
TTITLE4=Vendre
TTITLE5=Amor por caridad
TTITLE6=Lupita y Mabel
TTITLE7=Yo soy un barco
TTITLE8=Hoy es mi cumpleaños
EXTD=YEAR: 1979
EXTT0=
EXTT1=
EXTT2=
EXTT3=
EXTT4=
EXTT5=
EXTT6=
EXTT7=
EXTT8=
PLAYORDER=
